<svg data-v-0dd9719b="" version="1.0" xmlns="http://www.w3.org/2000/svg" xmlns:xlink="http://www.w3.org/1999/xlink" width="100%" height="100%" viewBox="0 0 340.000000 250.000000" preserveAspectRatio="xMidYMid meet" color-interpolation-filters="sRGB" style="margin: auto;"> <rect data-v-0dd9719b="" x="0" y="0" width="100%" height="100%" fill="#fff" fill-opacity="1" class="background"></rect> <rect data-v-0dd9719b="" x="0" y="0" width="100%" height="100%" fill="url(#watermark)" fill-opacity="1" class="watermarklayer"></rect> <g data-v-0dd9719b="" fill="#359f1b" class="icon-text-wrapper icon-svg-group iconsvg" transform="translate(80.98000347614288,82.2729721069336)"><g class="iconsvg-imagesvg" transform="translate(59.019996643066406,0)"><g><rect fill="#359f1b" fill-opacity="0" stroke-width="2" x="0" y="0" width="60" height="54.53405197095152" class="image-rect"></rect> <svg x="0" y="0" width="60" height="54.53405197095152" filtersec="colorsb5018989701" class="image-svg-svg primary" style="overflow: visible;"><svg version="1.1" id="图层_1" xmlns="http://www.w3.org/2000/svg" xmlns:xlink="http://www.w3.org/1999/xlink" x="0px" y="0px" viewBox="1.0299999713897705 0.9989337921142578 97.93687438964844 89.01480102539062" enable-background="new 0 0 100 91" xml:space="preserve">
<path fill="#4ABA00" d="M90.93,77.9c-8.46,9.88-21.42,13.61-33.25,10.76c6.84-1.51,13.25-5.17,18.16-10.9
	c12.01-14.03,10.37-35.15-3.66-47.16c-4.15-3.55-8.93-5.9-13.9-7.1c9.91-2.19,20.7,0.13,29,7.24
	C101.3,42.76,102.94,63.87,90.93,77.9z"></path>
<ellipse transform="matrix(0.1832 -0.9831 0.9831 0.1832 3.7175 116.1553)" fill="#4ABA00" cx="71.76" cy="55.84" rx="9.58" ry="9.58"></ellipse>
<path fill="#359F1B" d="M86.44,48.06c5.04,14.1,1.18,29.22-8.66,39.22c-6.39,2.51-13.42,3-20.1,1.39
	c6.83-1.51,13.25-5.17,18.16-10.9c12.01-14.03,10.37-35.15-3.66-47.16c-2.93-2.51-6.18-4.41-9.58-5.73
	C73.31,28.38,82.35,36.62,86.44,48.06z"></path>
<path fill="#00A0EE" d="M1.03,82.97l9.39-14.89c-0.05-0.14-0.11-0.27-0.16-0.41C5.93,55.42,9.18,42.32,17.56,33.5
	c-2.11,6.68-2.15,14.07,0.36,21.18c6.15,17.42,25.25,26.55,42.67,20.41c5.16-1.82,9.58-4.78,13.1-8.49
	c-3.06,9.68-10.46,17.86-20.77,21.5c-12.92,4.56-26.77,0.7-35.57-8.7L1.03,82.97z"></path>
<ellipse transform="matrix(0.1832 -0.9831 0.9831 0.1832 -29.3933 88.9722)" fill="#00A0EE" cx="38.85" cy="62.18" rx="9.58" ry="9.58"></ellipse>
<path fill="#1681E5" d="M39.12,78.9c-15-2.32-26.5-13.09-30.49-26.76c0.94-6.93,3.99-13.48,8.72-18.68
	c-2.04,6.86-1.97,14.38,0.68,21.55c6.5,17.56,26.03,26.32,43.64,19.56c3.68-1.41,6.97-3.4,9.83-5.81
	C63.07,76.66,51.29,80.78,39.12,78.9z"></path>
<g>
	<path fill="#4ABA00" d="M59.22,1.57c12.78,2.38,22.5,11.75,25.95,23.42c-4.73-5.16-11.11-8.89-18.52-10.27
		c-18.16-3.38-35.62,8.59-39.01,26.75c-1,5.37-0.65,10.69,0.8,15.59c-6.86-7.49-10.23-17.99-8.23-28.74
		C23.6,10.16,41.06-1.81,59.22,1.57z"></path>
</g>
<path fill="#FFD100" d="M59.22,1.57c12.78,2.38,22.5,11.75,25.95,23.42c-4.73-5.16-11.11-8.89-18.52-10.27
	c-18.16-3.38-35.62,8.59-39.01,26.75c-1,5.37-0.65,10.69,0.8,15.59c-6.86-7.49-10.23-17.99-8.23-28.74
	C23.6,10.16,41.06-1.81,59.22,1.57z"></path>
<ellipse transform="matrix(0.1832 -0.9831 0.9831 0.1832 11.0823 73.109)" fill="#FFD100" cx="49.54" cy="29.89" rx="9.58" ry="9.58"></ellipse>
<path fill="#FDBC2D" d="M34.99,20.77C44.51,8.95,59.6,4.4,73.43,7.79c5.53,4.29,9.66,10.21,11.8,16.91
	c-4.91-5.2-11.46-8.92-18.99-10.21c-18.45-3.18-35.82,9.34-38.79,27.96c-0.62,3.89-0.55,7.73,0.1,11.42
	C24.92,42.62,27.27,30.36,34.99,20.77z"></path>
</svg></svg> <!----></g></g> <g transform="translate(0,61.53404998779297)"><g data-gra="path-name" fill-rule="" class="tp-name iconsvg-namesvg"><g transform="scale(1)"><g><path d="M13.27-2.3L13.27-2.3Q14.22-2.3 15.01-2.39 15.81-2.48 16.51-2.66 17.21-2.84 17.83-3.09 18.45-3.35 19.07-3.67L19.07-3.67 19.07-8.83 15.45-8.83Q15.14-8.83 14.95-9.01 14.76-9.19 14.76-9.45L14.76-9.45 14.76-11.25 21.94-11.25 21.94-2.27Q21.06-1.63 20.11-1.16 19.15-0.69 18.07-0.37 16.98-0.05 15.74 0.11 14.5 0.26 13.05 0.26L13.05 0.26Q10.5 0.26 8.38-0.61 6.25-1.49 4.72-3.06 3.18-4.64 2.33-6.84 1.47-9.05 1.47-11.69L1.47-11.69Q1.47-14.37 2.31-16.57 3.15-18.78 4.71-20.35 6.27-21.93 8.48-22.79 10.69-23.66 13.44-23.66L13.44-23.66Q14.83-23.66 16.02-23.46 17.21-23.25 18.23-22.87 19.25-22.48 20.12-21.94 20.98-21.39 21.73-20.7L21.73-20.7 20.83-19.27Q20.56-18.83 20.12-18.83L20.12-18.83Q19.85-18.83 19.54-19.01L19.54-19.01Q19.14-19.23 18.63-19.56 18.12-19.89 17.4-20.19 16.67-20.49 15.68-20.7 14.7-20.92 13.34-20.92L13.34-20.92Q11.36-20.92 9.76-20.27 8.16-19.63 7.04-18.43 5.91-17.23 5.31-15.52 4.7-13.81 4.7-11.69L4.7-11.69Q4.7-9.47 5.33-7.73 5.96-5.99 7.1-4.78 8.25-3.58 9.81-2.94 11.38-2.3 13.27-2.3ZM26.81-23.4L41.23-23.4 41.23-20.82 29.99-20.82 29.99-13.05 39.09-13.05 39.09-10.56 29.99-10.56 29.99-2.58 41.23-2.58 41.23 0 26.81 0 26.81-23.4ZM47.42-23.4L47.42-23.4Q47.84-23.4 48.05-23.29 48.25-23.19 48.51-22.86L48.51-22.86 62.06-5.22Q62.01-5.65 62-6.05 61.98-6.45 61.98-6.83L61.98-6.83 61.98-23.4 64.76-23.4 64.76 0 63.16 0Q62.78 0 62.53-0.13 62.28-0.26 62.03-0.57L62.03-0.57 48.49-18.19Q48.53-17.78 48.54-17.39 48.56-17 48.56-16.67L48.56-16.67 48.56 0 45.78 0 45.78-23.4 47.42-23.4ZM70.47-23.4L84.89-23.4 84.89-20.82 73.66-20.82 73.66-13.05 82.75-13.05 82.75-10.56 73.66-10.56 73.66-2.58 84.89-2.58 84.89 0 70.47 0 70.47-23.4ZM109.72-11.69L109.72-11.69Q109.72-9.06 108.89-6.91 108.06-4.75 106.54-3.22 105.02-1.68 102.9-0.84 100.78 0 98.2 0L98.2 0 89.44 0 89.44-23.4 98.2-23.4Q100.78-23.4 102.9-22.56 105.02-21.72 106.54-20.17 108.06-18.63 108.89-16.47 109.72-14.32 109.72-11.69ZM106.47-11.69L106.47-11.69Q106.47-13.85 105.89-15.54 105.3-17.24 104.22-18.42 103.14-19.59 101.61-20.21 100.07-20.83 98.2-20.83L98.2-20.83 92.63-20.83 92.63-2.56 98.2-2.56Q100.07-2.56 101.61-3.18 103.14-3.8 104.22-4.97 105.3-6.14 105.89-7.84 106.47-9.54 106.47-11.69ZM119.91-9.76L117.51-9.76 117.51 0 114.36 0 114.36-23.4 120.97-23.4Q123.19-23.4 124.81-22.95 126.43-22.5 127.48-21.65 128.53-20.8 129.04-19.6 129.55-18.4 129.55-16.92L129.55-16.92Q129.55-15.67 129.15-14.6 128.76-13.52 128.02-12.66 127.28-11.81 126.21-11.2 125.14-10.6 123.78-10.29L123.78-10.29Q124.37-9.94 124.83-9.29L124.83-9.29 131.65 0 128.84 0Q127.98 0 127.57-0.67L127.57-0.67 121.5-9.03Q121.22-9.42 120.89-9.59 120.57-9.76 119.91-9.76L119.91-9.76ZM117.51-20.9L117.51-12.07 120.83-12.07Q122.22-12.07 123.27-12.4 124.32-12.74 125.03-13.35 125.74-13.96 126.1-14.81 126.46-15.66 126.46-16.69L126.46-16.69Q126.46-18.78 125.08-19.84 123.7-20.9 120.97-20.9L120.97-20.9 117.51-20.9ZM138.82-23.4L138.82 0 135.65 0 135.65-23.4 138.82-23.4ZM145.09-23.4L159.51-23.4 159.51-20.82 148.27-20.82 148.27-12.64 157.88-12.64 157.88-10.06 148.27-10.06 148.27 0 145.09 0 145.09-23.4ZM161.19-23.4L179.51-23.4 179.51-20.74 171.95-20.74 171.95 0 168.78 0 168.78-20.74 161.19-20.74 161.19-23.4Z" transform="translate(-1.4700000286102295, 23.65999984741211)"></path></g> <!----> <!----> <!----> <!----> <!----> <!----> <!----></g></g> <!----></g></g><defs v-gra="od"></defs></svg>